<svg height="512pt" viewBox="0 -112 512 512" width="512pt" xmlns="http://www.w3.org/2000/svg"><path d="m448 224h-384v-144c0-44.113281 35.886719-80 80-80h224c44.113281 0 80 35.886719 80 80zm0 0" fill="#c98a2e"/><g fill="#fff"><path d="m128 128h32v32h-32zm0 0"/><path d="m240 128h32v32h-32zm0 0"/><path d="m352 128h32v32h-32zm0 0"/></g><path d="m32 64h448v32h-448zm0 0" fill="#ffcb5a"/><path d="m64 96h384v32h-384zm0 0" fill="#ad712c"/><path d="m32 192h448v32h-448zm0 0" fill="#ffcb5a"/><path d="m0 256h512v32h-512zm0 0" fill="#57565c"/></svg>