<svg id="Capa_1" enable-background="new 0 0 512 512" height="512" viewBox="0 0 512 512" width="512" xmlns="http://www.w3.org/2000/svg"><g><path d="m487.605 151.548-20.001-20.002c-2.813-2.813-6.628-4.394-10.607-4.394h-241.987c-8.285 0-15 6.716-15 15v80.006h291.989v-60.004c0-3.978-1.58-7.793-4.394-10.606z" fill="#8c624d"/><path d="m487.605 151.548-20.001-20.002c-2.813-2.813-6.628-4.394-10.607-4.394h-200.997v95.005l235.999.001v-60.004c0-3.978-1.58-7.793-4.394-10.606z" fill="#733e33"/><path d="m95.001 222.159h-60c-8.284 0-15 6.716-15 15v135.01c0 8.284 6.716 15 15 15h60c8.284 0 15-6.716 15-15v-135.01c0-8.285-6.716-15-15-15z" fill="#733e33"/><path d="m476.999 222.159h-60c-8.284 0-15 6.716-15 15v135.01c0 8.284 6.716 15 15 15h60c8.284 0 15-6.716 15-15v-135.01c0-8.285-6.716-15-15-15z" fill="#693c3c"/><path d="m95.001 317.165s.001 0 0 0l-80.001-.001c-8.285 0-15-6.716-15-15s6.716-15 15-15l80.001.001c8.285 0 15 6.716 15 15s-6.716 15-15 15z" fill="#ffd580"/><path d="m497 317.164h-80.001c-8.284 0-15-6.716-15-15s6.716-15 15-15h80.001c8.284 0 15 6.716 15 15s-6.716 15-15 15z" fill="#ffb366"/><path d="m95.001 222.159h321.998v165.01h-321.998z" fill="#8c624d"/><path d="m256 222.159h160.999v165.01h-160.999z" fill="#733e33"/><path d="m321.007 277.163c-6.528 0-12.067 4.179-14.128 10.001h-101.753c-2.062-5.822-7.6-10.001-14.128-10.001-8.284 0-15 6.716-15 15v20.001c0 8.284 6.716 15 15 15 6.528 0 12.067-4.178 14.128-10h101.753c2.061 5.822 7.6 10 14.128 10 8.284 0 15-6.716 15-15v-20.001c0-8.285-6.716-15-15-15z" fill="#ffd580"/><path d="m321.007 277.163c-6.528 0-12.067 4.179-14.128 10.001h-50.879v30h50.879c2.061 5.822 7.6 10 14.128 10 8.284 0 15-6.716 15-15v-20.001c0-8.285-6.716-15-15-15z" fill="#ffb366"/><path d="m35.001 79.828h180.009v142.33h-180.009z" fill="#e6f0f2"/><path d="m215.01 64.828h-180.009c-8.284 0-15 6.716-15 15v142.33h210.009v-142.33c0-8.284-6.716-15-15-15zm-15 142.33h-150.009v-112.33h150.009z" fill="#ffd580"/><path d="m125.007 147.153h-60.006c-24.813 0-45 20.187-45 45v30h150.006v-30c0-24.813-20.187-45-45-45z" fill="#fff5f5"/><path d="m507.606 383.564-15.607-11.395h-471.998l-15.607 11.395c-2.813 2.812-4.394 6.628-4.394 10.606v38.002c0 8.284 6.716 15 15 15h482c8.284 0 15-6.716 15-15v-38.002c0-3.978-1.58-7.794-4.394-10.606z" fill="#a6896b"/><path d="m507.606 383.564-15.607-11.395h-235.999v75.003h241c8.284 0 15-6.716 15-15v-38.002c0-3.978-1.58-7.794-4.394-10.606z" fill="#8c624d"/><path d="m497 237.158h-482c-8.284 0-15-6.716-15-15s6.716-15 15-15h482c8.284 0 15 6.716 15 15s-6.716 15-15 15z" fill="#a6896b"/><path d="m497 207.158h-241v30h241c8.284 0 15-6.716 15-15s-6.716-15-15-15z" fill="#8c624d"/></g></svg>