<svg height="512pt" viewBox="0 0 512 512" width="512pt" xmlns="http://www.w3.org/2000/svg"><path d="m320 48h-48v-48h-32v48h-48v32h48v112h32v-112h48zm0 0" fill="#ffcb5a"/><path d="m240 80h32v32h-32zm0 0" fill="#fba61f"/><path d="m445.472656 279.359375c-41.488281-64.71875-112.320312-103.359375-189.472656-103.359375-76.558594 0-147.054688 38.640625-188.558594 103.359375l-2.53125 3.953125v228.6875h383.089844v-228.6875zm0 0" fill="#c98a2e"/><path d="m64.910156 448h383.089844v64h-383.089844zm0 0" fill="#ad712c"/><path d="m0 480h512v32h-512zm0 0" fill="#b0b4b9"/><path d="m160 384h32v32h-32zm0 0" fill="#fff"/><path d="m320 384h32v32h-32zm0 0" fill="#fff"/><path d="m64.910156 336h383.089844v48h-383.089844zm0 0" fill="#ad712c"/><path d="m32 320h448v32h-448zm0 0" fill="#b0b4b9"/></svg>