<svg id="Capa_1" enable-background="new 0 0 591.859 591.859" height="512" viewBox="0 0 591.859 591.859" width="512" xmlns="http://www.w3.org/2000/svg"><g><g><path d="m589.118 38.201c-2.365-1.089-5.148-.056-6.223 2.3-1.145 2.492-28.069 61.362-30.313 90.858-1.089 14.112.15 25.835 1.356 37.174 1.145 10.818 2.234 21.025 1.46 33.293-.136 2.168-.314 4.43-.591 6.749-1.568 13.455-20.18 55.881-52.417 119.458-7.072 14.004-13.54 26.422-18.28 35.47-3.158 6.054-10.719 8.884-17.313 6.045-6.092-2.689-8.908-9.611-6.34-15.957.019-.042.052-.131.084-.211l39.206-88.915c1.047-2.37-.028-5.144-2.403-6.185-2.365-1.042-5.144.033-6.185 2.403l-39.234 88.981c-.042.094-.028.192-.061.286-.009.023-.028.042-.038.066-.023.042-.061.07-.084.117l-11.634 26.408c-2.745 6.171-9.968 8.969-16.125 6.242-4.449-1.948-7.326-6.34-7.326-11.188 0-1.483.282-2.933.831-4.294.009-.019.014-.038.019-.056l49.343-111.977c1.047-2.375-.033-5.144-2.403-6.186-2.384-1.047-5.144.038-6.185 2.403l-49.087 111.375c-.023.052-.075.08-.099.131-.061.131-.16.422-.253.657l-12.789 29.017c-2.736 6.153-9.992 8.936-16.177 6.247-4.416-1.934-7.274-6.326-7.274-11.188 0-1.666.361-3.36 1.056-4.909l9.25-20.931c.052-.122.099-.249.141-.375l50.493-114.61c1.047-2.375-.033-5.144-2.403-6.185-2.384-1.051-5.144.033-6.185 2.403l-50.634 114.934c-.019.038-.028.08-.047.122-2.783 6.082-9.959 8.842-16.041 6.124-.122-.056-.286-.113-.455-.169-5.937-2.783-8.654-9.851-6.059-15.905l62.23-146.054c.746-1.755 1.126-3.632 1.126-5.585 0-4.895-2.464-9.377-6.589-11.986-3.262-2.079-7.148-2.727-10.907-1.835-3.75.887-6.899 3.191-8.861 6.467l-29.801 49.456c-3.051 5.045-8.41 8.063-14.333 8.063-3.022 0-5.979-.821-8.555-2.37-3.435-2.074-5.909-5.153-7.18-8.94 0-.005-.005-.009-.005-.014s-.005-.009-.005-.014c-1.586-4.609-1.037-9.691 1.506-13.929l54.111-89.779c5.331-8.851 13.014-15.924 22.226-20.462l17.937-8.879c12.099-6.021 22.109-15.928 28.182-27.872l34.494-67.346c1.183-2.309.272-5.139-2.037-6.317-2.314-1.187-5.134-.272-6.317 2.037l-34.489 67.365c-5.176 10.179-13.699 18.608-23.991 23.733l-17.923 8.875c-10.822 5.331-19.847 13.643-26.108 24.029l-11.16 18.514c-5.345 2.886-30.552 16.543-58.222 32.429l27.821-46.114c5.28-8.828 12.948-15.9 22.18-20.443l17.928-8.875c12.057-5.974 22.086-15.881 28.238-27.882l34.447-67.346c1.178-2.304.268-5.134-2.046-6.317-2.295-1.173-5.13-.263-6.317 2.046l-34.443 67.341c-5.317 10.372-13.629 18.585-24.047 23.747l-17.918 8.87c-10.85 5.35-19.866 13.662-26.07 24.033l-36.648 60.747c-37.15 21.842-59.513 36.967-66.445 44.941-12.057 13.868-21.851 33.236-27.103 44.772-15.966-31.8-40.253-57.795-46.232-63.939v-34.119c0-2.595-2.098-4.693-4.693-4.693h-22.574v-16.708h2.91c2.595 0 4.693-2.098 4.693-4.693v-10.531c2.867-.91 5.463-1.877 7.833-2.769 4.365-1.629 8.128-3.032 11.916-3.487 10.513-1.253 22.391 3.032 22.513 3.074 1.441.53 3.051.314 4.304-.558 1.258-.878 2.009-2.314 2.009-3.844v-23.184c0-1.971-1.234-3.731-3.083-4.407-.568-.206-14.004-5.05-26.854-3.586-4.937.591-9.414 2.276-14.154 4.064-7.584 2.853-16.177 6.092-29.782 6.092-21.185 0-35.766-9.325-35.897-9.414-1.445-.953-3.29-1.032-4.806-.211-1.516.817-2.464 2.403-2.464 4.13v23.174c0 1.596.807 3.079 2.145 3.942.272.174 6.096 3.895 15.736 6.941v10.564c0 2.595 2.098 4.693 4.693 4.693h2.91v16.707h-22.575c-2.595 0-4.693 2.098-4.693 4.693v34.119c-9.288 9.532-60.184 64.108-60.456 115.046-.221 40.82 9.269 167.553 14.943 239.474 1.079 13.258 12.371 23.648 25.704 23.648h129.534c13.366 0 24.634-10.395 25.657-23.658 3.576-44.833 15.229-194.594 14.985-239.455-.047-12.179-3.083-25.53-8.964-39.68 2.867-6.889 14.38-33.316 28.933-50.052 3.562-4.097 16.759-15.215 65.145-43.618 22.32-13.103 45.218-25.835 59.724-33.8l-33.363 55.355c-2.863 4.773-4.083 10.231-3.628 15.605-13.54.765-33.068 7.049-37.263 27.835-2.694 13.31 2.173 26.746 14.075 38.859 5.078 5.158 6.547 12.671 3.731 19.143-5.13 11.761-9.414 29.06-.695 44.692 6.908 12.455 19.068 15.971 30.608 15.966 11.869 0 23.052-3.712 27.178-5.252 2.243.756 4.534 1.225 6.81 1.225 1.366 0 2.713-.178 4.041-.432l-2.084 4.717c-1.22 2.727-1.858 5.744-1.858 8.715 0 8.593 5.064 16.36 12.901 19.786 2.816 1.234 5.754 1.816 8.654 1.816 8.311 0 16.28-4.801 19.861-12.854l5.941-13.479c2.257 3.628 5.561 6.589 9.635 8.372 2.83 1.258 5.777 1.854 8.696 1.854 8.279 0 16.205-4.806 19.8-12.883l4.67-10.592c2.229 3.576 5.505 6.561 9.691 8.405 2.975 1.281 6.059 1.934 9.175 1.934 8.523 0 16.271-4.688 20.208-12.23 4.473-8.532 10.484-20.091 17.088-33.128 10.344-.577 45.532-4.022 56.772-24.207 7.382-13.263 5.862-25.789 3.285-33.964-1.661-5.28-.634-11.254 2.76-15.98 9.696-13.479 13.962-25.141 12.667-34.677-2.112-15.548-14.305-23.663-20.143-26.708.455-11.639-.544-21.828-1.582-31.636-1.216-11.423-2.361-22.208-1.333-35.466 2.117-27.83 29.21-87.066 29.477-87.657 1.066-2.35.029-5.137-2.322-6.217zm-448.134 172.41h-11.404v-26.657h11.404zm-50.357 0v-26.657h10.085v26.657zm6.477-52.745h16.614v16.707h-16.614zm89.37 409.298c-.652 8.415-7.809 15.004-16.299 15.004h-129.529c-8.48 0-15.661-6.599-16.341-15.013-5.665-71.763-15.136-198.199-14.915-238.677.249-46.682 49.085-99.493 57.734-108.481h76.577c6.284 6.505 34.208 36.54 48.78 70.612 0 .005 0 .005.005.009s.005.014.009.019c5.89 13.68 8.898 26.413 8.945 37.85.23 44.496-11.394 193.924-14.966 238.677zm120.237-208.941c-6.847-12.286-3.187-26.568 1.098-36.39 4.35-10.006 2.131-21.579-5.651-29.473-6.702-6.819-14.15-17.637-11.559-30.416 3.693-18.317 23.386-20.269 30.712-20.363 2.178 4.435 5.547 8.236 9.855 10.836 4.045 2.436 8.682 3.722 13.403 3.722 9.236 0 17.594-4.707 22.367-12.601l29.815-49.475c.657-1.098 1.708-1.863 2.975-2.164 1.286-.305 2.605-.084 3.722.624 1.394.882 2.229 2.403 2.229 4.06 0 .685-.127 1.328-.375 1.915l-62.23 146.035c-3.285 7.659-1.675 16.196 3.323 22.255-11.286 3.079-31.546 6.129-39.684-8.565zm268.989-131.069c.934 6.871-2.966 16.787-10.987 27.933-5.111 7.115-6.641 16.191-4.092 24.282 2.027 6.415 3.229 16.233-2.534 26.577-7.007 12.601-29.435 17.501-43.622 18.979 31.223-62.01 47.949-100.798 49.653-115.211 4.575 3.173 10.409 8.8 11.582 17.44z"/><path d="m584.823 370.951c-70.884 24.531-144.364 40.356-224.635 48.39-15.534 1.596-28.787 12.141-33.771 26.877-4.641 13.802-12.277 33.837-22.311 50.882-17.984 30.599-76.394 85.794-76.981 86.348-1.887 1.779-1.976 4.749-.197 6.631.92.981 2.168 1.474 3.417 1.474 1.154 0 2.309-.422 3.219-1.276 2.445-2.295 59.973-56.674 78.642-88.422 10.437-17.74 18.331-38.422 23.113-52.642 3.811-11.249 13.948-19.312 25.826-20.532 80.998-8.11 155.167-24.09 226.756-48.855 2.445-.849 3.75-3.52 2.9-5.97-.857-2.45-3.533-3.75-5.978-2.905z"/><path d="m240.773 335.086c9.283-12.948 22.4-19.429 40.126-19.819 2.591-.061 4.641-2.206 4.59-4.796-.061-2.553-2.145-4.59-4.693-4.59-.033 0-.07 0-.103 0-20.584.455-36.578 8.438-47.541 23.733-1.511 2.107-1.028 5.04 1.075 6.552.831.596 1.788.882 2.731.882 1.459-.005 2.895-.681 3.815-1.962z"/><path d="m171.916 475.259c-2.595 0-4.693 2.098-4.693 4.693 0 26.91-27.727 48.803-61.813 48.803-34.081 0-61.808-21.893-61.808-48.803 0-2.595-2.098-4.693-4.693-4.693s-4.693 2.098-4.693 4.693c0 32.087 31.941 58.19 71.194 58.19 39.258 0 71.199-26.108 71.199-58.19 0-2.595-2.102-4.693-4.693-4.693z"/><path d="m69.687 347.035c.845.638 1.84.943 2.821.943 1.427 0 2.835-.648 3.754-1.868 1.558-2.07 1.145-5.012-.925-6.57-3.586-2.699-5.636-6.786-5.636-11.226 0-3.229 1.117-6.373 3.154-8.842 1.647-2.004 1.356-4.961-.643-6.608-2.009-1.652-4.961-1.356-6.608.643-3.412 4.144-5.289 9.405-5.289 14.807-.005 7.302 3.501 14.3 9.372 18.721z"/><path d="m57.564 395.533c5.486 1.032 9.442 5.829 9.41 11.414-.075 13.563 6.27 22.916 17.853 26.342 1.816.54 3.642.793 5.486.793 21.945-.005 45.129-35.747 51.112-45.607 10.268-1.403 18.242-10.161 18.242-20.833 0-1.408-.169-2.797-.451-4.172 7.326-5.627 25.432-21.269 22.109-36.179-1.384-6.2-7.143-13.521-25.521-13.244-2.318.07-4.2-.826-5.707-2.393-1.577-1.638-2.384-3.801-2.262-6.092.854-16.487-5.294-22.475-10.602-24.592-13.089-5.233-28.557 7.096-34.804 12.85-5.74-3.116-12.099-4.834-18.693-4.834-21.687 0-39.333 17.641-39.333 39.328 0 7.725 2.267 15.163 6.401 21.485-7.115 4.482-18.984 14.215-16.52 28.281 1.082 6.152 5.996 14.182 23.28 17.453zm81.027-16.158c-6.444 0-11.686-5.261-11.686-11.733 0-6.444 5.242-11.681 11.686-11.681 4.768 0 9.119 2.966 10.832 7.373.009.019.014.033.023.052.554 1.384.835 2.821.835 4.257-.005 6.471-5.247 11.732-11.69 11.732zm-54.858-81.003c6.012 0 11.822 1.783 16.792 5.158.005 0 .009.005.014.005 8.227 5.538 13.136 14.802 13.136 24.779 0 16.51-13.432 29.942-29.942 29.942-8.598 0-16.773-3.679-22.452-10.114-4.829-5.416-7.495-12.46-7.495-19.828.001-16.51 13.432-29.942 29.947-29.942zm-26.83 58.692c7.232 6.753 16.811 10.574 26.826 10.574 21.687 0 39.328-17.641 39.328-39.328 0-11.137-4.698-21.565-12.732-28.928 6.185-5.284 16.637-12.385 23.428-9.701 4.688 1.873 4.961 10.447 4.702 15.393-.244 4.843 1.535 9.611 4.876 13.084 3.337 3.454 7.922 5.289 12.606 5.266 5.533-.08 15.037.573 16.229 5.899 1.783 8.002-9.536 19.251-17.003 25.357-3.919-4.998-10.02-8.114-16.571-8.114-11.62 0-21.072 9.452-21.072 21.067 0 8.987 5.655 16.628 13.568 19.669-11.644 18.148-31.11 40.708-43.58 36.982-2.778-.821-11.216-3.318-11.141-17.294.061-10.123-7.119-18.824-17.055-20.687-6.627-1.258-14.75-3.989-15.773-9.86-1.631-9.233 8.3-16.38 13.364-19.379z"/><path d="m161.634 411.382c0-2.595-2.098-4.693-4.693-4.693s-4.693 2.098-4.693 4.693v11.92c0 2.595 2.098 4.693 4.693 4.693s4.693-2.098 4.693-4.693z"/><path d="m156.941 441.558c-2.595 0-4.693 2.098-4.693 4.693v11.874c0 2.595 2.098 4.693 4.693 4.693s4.693-2.098 4.693-4.693v-11.874c0-2.595-2.098-4.693-4.693-4.693z"/><path d="m133.621 430.065c-2.595 0-4.693 2.098-4.693 4.693s2.098 4.693 4.693 4.693h11.869c2.595 0 4.693-2.098 4.693-4.693s-2.098-4.693-4.693-4.693z"/><path d="m180.317 430.065h-11.873c-2.595 0-4.693 2.098-4.693 4.693s2.098 4.693 4.693 4.693h11.873c2.595 0 4.693-2.098 4.693-4.693s-2.103-4.693-4.693-4.693z"/><path d="m88.614 248.25c2.595 0 4.693-2.098 4.693-4.693v-11.874c0-2.595-2.098-4.693-4.693-4.693s-4.693 2.098-4.693 4.693v11.874c0 2.595 2.098 4.693 4.693 4.693z"/><path d="m88.614 283.119c2.595 0 4.693-2.098 4.693-4.693v-11.92c0-2.595-2.098-4.693-4.693-4.693s-4.693 2.098-4.693 4.693v11.92c0 2.596 2.098 4.693 4.693 4.693z"/><path d="m65.285 259.753h11.874c2.595 0 4.693-2.098 4.693-4.693s-2.098-4.693-4.693-4.693h-11.874c-2.595 0-4.693 2.098-4.693 4.693s2.097 4.693 4.693 4.693z"/><path d="m100.107 259.753h11.874c2.595 0 4.693-2.098 4.693-4.693s-2.098-4.693-4.693-4.693h-11.874c-2.595 0-4.693 2.098-4.693 4.693s2.098 4.693 4.693 4.693z"/></g></g></svg>