<?xml version="1.0" encoding="iso-8859-1"?>
<!-- Generator: Adobe Illustrator 19.0.0, SVG Export Plug-In . SVG Version: 6.00 Build 0)  -->
<svg version="1.1" id="Capa_1" xmlns="http://www.w3.org/2000/svg" xmlns:xlink="http://www.w3.org/1999/xlink" x="0px" y="0px"
	 viewBox="0 0 480 480" style="enable-background:new 0 0 480 480;" xml:space="preserve">
<g>
	<path style="fill:#6B5936;" d="M216,144V80c0-8.8,7.2-16,16-16h160c8.8,0,16,7.2,16,16v240c0,8.8-7.2,16-16,16H264"/>
	<path style="fill:#6B5936;" d="M224,0h176c4.8,0,8,3.2,8,8v16c0,4.8-3.2,8-8,8H224c-4.8,0-8-3.2-8-8V8C216,3.2,219.2,0,224,0z"/>
</g>
<line style="fill:none;stroke:#000000;stroke-width:2;stroke-linejoin:round;" x1="232" y1="256" x2="264" y2="256"/>
<g>
	<rect x="232" y="32" style="fill:#4F4228;" width="160" height="32"/>
	<polyline style="fill:#4F4228;" points="248,144 248,96 376,96 376,160 264,160 	"/>
	<rect x="376" y="96" style="fill:#4F4228;" width="32" height="16"/>
	<rect x="216" y="96" style="fill:#4F4228;" width="32" height="16"/>
	<rect x="264" y="240" style="fill:#4F4228;" width="144" height="32"/>
</g>
<g>
	<path style="fill:#A88C55;" d="M88,208h160c8.8,0,16,7.2,16,16v240c0,8.8-7.2,16-16,16H88c-8.8,0-16-7.2-16-16V224
		C72,215.2,79.2,208,88,208z"/>
	<path style="fill:#A88C55;" d="M152,144H80c-4.8,0-8,3.2-8,8v16c0,4.8,3.2,8,8,8h176c4.8,0,8-3.2,8-8v-16c0-4.8-3.2-8-8-8H152"/>
</g>
<rect x="88" y="176" style="fill:#4F4228;" width="160" height="32"/>
<g>
	<rect x="104" y="240" style="fill:#6B5936;" width="128" height="64"/>
	<rect x="72" y="240" style="fill:#6B5936;" width="32" height="16"/>
	<rect x="232" y="240" style="fill:#6B5936;" width="32" height="16"/>
	<rect x="72" y="384" style="fill:#6B5936;" width="192" height="32"/>
</g>
<g>
</g>
<g>
</g>
<g>
</g>
<g>
</g>
<g>
</g>
<g>
</g>
<g>
</g>
<g>
</g>
<g>
</g>
<g>
</g>
<g>
</g>
<g>
</g>
<g>
</g>
<g>
</g>
<g>
</g>
</svg>
