<?xml version="1.0" encoding="iso-8859-1"?>
<!-- Generator: Adobe Illustrator 19.0.0, SVG Export Plug-In . SVG Version: 6.00 Build 0)  -->
<svg version="1.1" id="Capa_1" xmlns="http://www.w3.org/2000/svg" xmlns:xlink="http://www.w3.org/1999/xlink" x="0px" y="0px"
	 viewBox="0 0 512 512" style="enable-background:new 0 0 512 512;" xml:space="preserve">
<g>
	<g>
		<path d="M477.595,241.528c-7.993-2.179-16.238,2.534-18.418,10.526L445.831,301h-30.987l32.264-118.703
			c3.211-11.774,1.45-24.528-4.801-34.946l-74.7-125.504C359.521,8.372,344.736,0,329.02,0H182.991
			c-15.716,0-30.501,8.372-38.615,21.893L69.729,147.305c-6.279,10.464-8.038,23.219-4.83,34.98L97.167,301H66.172l-13.348-48.946
			c-2.179-7.993-10.426-12.706-18.418-10.525c-7.993,2.18-12.705,10.426-10.525,18.418l57.267,210
			c1.819,6.672,7.865,11.058,14.463,11.058c1.306,0,2.635-0.172,3.955-0.532c7.993-2.18,12.705-10.426,10.525-18.418L98.896,421
			h30.887l15.721,57.84c5.325,19.524,23.178,33.16,43.415,33.16h134.172c20.237,0,38.09-13.636,43.418-33.172L382.227,421h30.884
			l-11.194,41.054c-2.18,7.992,2.533,16.238,10.525,18.417c1.321,0.36,2.648,0.532,3.955,0.532c6.598,0,12.644-4.387,14.463-11.058
			l57.26-210C490.3,251.954,485.587,243.708,477.595,241.528z M90.715,391l-16.362-60h30.968l16.308,60H90.715z M337.563,470.947
			c-1.774,6.508-7.726,11.053-14.472,11.053H188.919c-6.746,0-12.697-4.545-14.468-11.041
			c-3.037-11.173-80.185-295.008-80.605-296.555c-1.071-3.925-0.484-8.176,1.636-11.71l74.647-125.412
			c2.695-4.491,7.623-7.282,12.862-7.282H329.02c5.238,0,10.167,2.791,12.835,7.237l74.701,125.503
			c2.093,3.488,2.68,7.74,1.606,11.676C416.123,181.92,339.731,462.97,337.563,470.947z M421.292,391h-30.91l16.309-60h30.961
			L421.292,391z"/>
	</g>
</g>
<g>
	<g>
		<path d="M384.24,167.205l-59.341-98.921C322.188,63.765,317.305,61,312.036,61H199.975c-5.27,0-10.152,2.765-12.863,7.284
			l-59.341,98.921c-2.103,3.506-2.684,7.719-1.608,11.663l71.206,261.079c1.78,6.526,7.708,11.053,14.472,11.053h88.33
			c6.765,0,12.691-4.527,14.472-11.053l71.206-261.079C386.923,174.923,386.343,170.71,384.24,167.205z M288.713,421h-65.416
			L156.79,177.149L208.469,91h95.073l51.68,86.149L288.713,421z"/>
	</g>
</g>
<g>
	<g>
		<path d="M286.005,181h-15v-15c0-8.284-6.716-15-15-15c-8.284,0-15,6.716-15,15v15h-15c-8.284,0-15,6.716-15,15s6.716,15,15,15h15
			v75c0,8.284,6.716,15,15,15c8.284,0,15-6.716,15-15v-75h15c8.284,0,15-6.716,15-15S294.29,181,286.005,181z"/>
	</g>
</g>
<g>
</g>
<g>
</g>
<g>
</g>
<g>
</g>
<g>
</g>
<g>
</g>
<g>
</g>
<g>
</g>
<g>
</g>
<g>
</g>
<g>
</g>
<g>
</g>
<g>
</g>
<g>
</g>
<g>
</g>
</svg>
