<svg height="512pt" viewBox="-141 0 512 512" width="512pt" xmlns="http://www.w3.org/2000/svg"><path d="m125.550781 34.167969h-20.164062c-1.269531-1.269531-1.980469-1.984375-3.253907-3.253907v-16.585937c2.667969-2.664063 4.164063-4.160156 6.832032-6.828125h13.003906c2.667969 2.667969 4.164062 4.164062 6.832031 6.828125v16.585937c-1.269531 1.269532-1.980469 1.980469-3.25 3.253907zm0 0" fill="#ffe477"/><path d="m195.714844 41.496094c-4.109375-3.066406-6.992188-5.214844-11.097656-8.28125h-11.757813l-2.132813 24.046875h-4.332031c.132813 1.507812.203125 71.8125.203125 71.8125l-21.898437 21.898437v78.957032h17.769531c8.25-8.25 12.875-12.878907 21.128906-21.128907v-36.300781c15.1875-15.191406 38.894532-38.898438 38.894532-38.898438zm0 0" fill="#ffb655"/><path d="m64.539062 57.261719h-4.328124l-2.132813-24.046875h-11.757813c-4.105468 3.0625-6.992187 5.214844-11.097656 8.28125l-26.78125 92.105468s23.707032 23.707032 38.898438 38.898438v36.300781c8.25 8.25 12.878906 12.878907 21.128906 21.128907h17.769531v-78.957032l-21.902343-21.898437c.003906 0 .070312-70.304688.203124-71.8125zm0 0" fill="#ffb655"/><path d="m64.539062 57.261719c-.132812 1.507812-.199218 3.03125-.199218 4.570312v67.242188l32.105468 32.105469h38.042969c12.539063-12.539063 19.570313-19.566407 32.109375-32.105469v-67.242188c0-1.539062-.066406-3.0625-.203125-4.570312zm0 0" fill="#ffe477"/><path d="m214.46875 504.5h-198.007812v-21.996094c8.007812-8.007812 12.496093-12.496094 20.503906-20.503906h157c8.007812 8.007812 12.496094 12.496094 20.503906 20.503906zm0 0" fill="#ffe477"/><path d="m183.597656 172.5v36.300781c-8.253906 8.253907-12.878906 12.878907-21.128906 21.128907h-17.769531v-78.957032l-10.210938 10.210938h-38.042969l-10.207031-10.210938v78.957032h-17.769531l-21.128906-21.128907v-36.300781c-10.515625-10.515625-25.113282-25.113281-33.101563-33.101562l24.285157 322.601562h153.886718l24.289063-322.601562c-7.988281 7.988281-22.585938 22.585937-33.101563 33.101562zm0 0" fill="#ffb655"/><path d="m128.800781 19.339844v11.574218c-1.269531 1.269532-1.980469 1.980469-3.253906 3.253907h-20.160156c-1.269531-1.269531-1.984375-1.984375-3.253907-3.253907v-11.574218l-44.476562 9.128906 2.550781 28.792969h110.519531l2.550782-28.792969zm0 0" fill="#ffe477"/><path d="m174.699219 150.972656 21.898437-21.898437s-.066406-70.304688-.203125-71.8125h3.902344l-4.582031-15.765625c-4.109375-3.0625-6.992188-5.214844-11.097656-8.28125h-11.757813l-2.132813 24.046875h-4.332031c.132813 1.507812.203125 71.8125.203125 71.8125l-21.898437 21.898437v78.957032h17.769531c4.832031-4.835938 8.425781-8.425782 12.230469-12.230469zm0 0" fill="#ff7956"/><path d="m77.339844 208.800781v-36.300781c-15.191406-15.191406-38.898438-38.898438-38.898438-38.898438l22.195313-76.339843h-.429688l-2.132812-24.046875h-11.753907c-4.109374 3.066406-6.992187 5.21875-11.097656 8.28125l-26.78125 92.105468s23.707032 23.707032 38.898438 38.898438v36.300781c8.25 8.253907 12.875 12.878907 21.128906 21.128907h17.769531v-12.230469c-2.6875-2.6875-5.480469-5.480469-8.898437-8.898438zm0 0" fill="#ff7956"/><path d="m94.339844 61.832031c0-1.539062.066406-3.0625.199218-4.570312h-30c-.132812 1.507812-.199218 3.03125-.199218 4.570312v67.242188l32.105468 32.105469h30l-32.105468-32.105469zm0 0" fill="#ffb655"/><path d="m66.964844 462h-30c-8.007813 8.007812-12.496094 12.496094-20.503906 20.503906v21.996094h30v-21.996094c8.007812-8.007812 12.496093-12.496094 20.503906-20.503906zm0 0" fill="#ffb655"/><path d="m174.699219 229.929688h17.769531c7.449219-7.453126 11.953125-11.953126 18.832031-18.832032l2.296875-30.5v-8.097656c.214844-.214844.4375-.441406.65625-.660156l2.441406-32.441406c-7.988281 7.988281-22.585937 22.585937-33.101562 33.101562v36.300781c-3.414062 3.417969-6.207031 6.210938-8.898438 8.898438v12.230469zm0 0" fill="#ff7956"/><path d="m47.339844 208.800781v-28.203125l-.660156-8.757812c-10.460938-10.460938-24.617188-24.617188-32.441407-32.441406l24.285157 322.601562h30l-18.886719-250.902344zm0 0" fill="#ff7956"/><path d="m98.46875 229.929688h17.769531v-68.75h-19.792969l-10.207031-10.207032v66.726563zm0 0" fill="#ff7956"/><g fill="#ffb655"><path d="m132.132812 20.023438v10.890624c1.269532 1.269532 1.984376 1.980469 3.253907 3.253907h20.164062c1.269531-1.269531 1.980469-1.984375 3.25-3.253907v-5.417968zm0 0"/><path d="m102.132812 25.496094v-6.15625l-44.476562 9.128906 2.554688 28.792969h30l-2.554688-28.792969zm0 0"/><path d="m130.46875 19.683594-1.667969-.34375v.683594zm0 0"/></g><path d="m170.566406 273.726562c0-6.523437-2.539062-12.652343-7.148437-17.265624-4.609375-4.609376-10.742188-7.148438-17.261719-7.148438s-12.652344 2.539062-17.261719 7.148438c-7.671875 7.671874-9.160156 19.214843-4.472656 28.390624l-54.433594 54.429688 10.609375 10.609375 64.203125-64.207031-5.300781-5.304688c-3.671875-3.667968-3.671875-9.640625 0-13.308594 3.664062-3.671874 9.640625-3.671874 13.308594 0 3.671875 3.667969 3.671875 9.640626 0 13.308594l10.605468 10.605469c4.613282-4.609375 7.152344-10.738281 7.152344-17.257813zm0 0"/><path d="m99.90625 300.5625 10.605469-10.609375-36.140625-36.140625-14.003906 5.800781v45.796875h15v-29.386718zm0 0"/><path d="m118.402344 319.0625 10.605468-10.609375 30.160157 30.164063-10.605469 10.605468zm0 0"/><path d="m221.875 170.550781-14.957031-1.128906-21.464844 285.078125h-139.972656l-3.160157-42h22.019532v-15h-23.148438l-17.171875-228.078125-14.957031 1.128906 21.617188 287.128907-21.71875 21.71875v32.601562h213.007812v-32.605469l-21.710938-21.707031zm-14.90625 326.449219h-183.007812v-11.390625l16.109374-16.109375h150.789063l16.109375 16.109375zm0 0"/><path d="m39.839844 211.90625 25.523437 25.523438h28.375v-58.171876h-15v43.171876h-7.164062l-16.734375-16.734376v-36.300781l-37.960938-37.960937 2.695313-9.269532h21.894531v-15h-17.53125l17.785156-61.160156 7.085938-5.289062h2.40625l2.128906 24.046875h124.246094l2.132812-24.046875h2.402344l7.089844 5.289062 24.839844 85.429688-37.957032 37.960937v36.300781l-16.738281 16.734376h-7.160156v-43.171876h-15v58.171876h28.375l25.523437-25.523438v-36.300781l39.839844-39.839844-28.722656-98.777344-15.109375-11.273437h-6.050781l.289062-3.246094-45.042969-9.246094v-2l-11.226562-11.222656h-19.214844l-11.226563 11.222656v2l-45.039062 9.246094.289062 3.246094h-6.054687l-15.105469 11.273437-28.722656 98.777344 39.839844 39.839844zm125.378906-177.433594-.039062.449219-1.316407 14.839844h-40.894531v-8.09375h5.6875l7.644531-7.648438v-5.484375zm-46.355469-19.472656 2.4375 2.4375v9.230469h-11.667969v-9.230469l2.4375-2.4375zm-24.230469 13.535156v5.484375l7.644532 7.644531h5.691406v8.097657h-40.898438l-1.351562-15.289063zm0 0"/><path d="m56.839844 77.261719v54.917969l36.5 36.503906h44.257812l36.5-36.503906v-54.917969h-15v48.707031l-27.714844 27.714844h-31.832031l-27.710937-27.714844v-48.707031zm0 0"/><path d="m176.699219 437.5625-14.957031-1.125 5.023437-66.675781 14.957031 1.125zm5.773437-76.648438-14.957031-1.125 1.125-14.957031 14.957031 1.125zm1.875-24.929687-14.957031-1.125 1.128906-14.957031 14.957031 1.125zm0 0" fill="#fff"/><path d="m126.222656 144.699219-10.609375-10.605469 17.476563-17.476562 10.605468 10.609374zm22.875-31.449219h-15v-15h15zm0-25h-15v-15h15zm0 0" fill="#fff"/><path d="m189.46875 490.75h-24.003906v-15h24.003906zm-34.003906 0h-15v-15h15zm-25 0h-15v-15h15zm0 0" fill="#fff"/></svg>