<?xml version="1.0" encoding="iso-8859-1"?>
<!-- Generator: Adobe Illustrator 21.0.0, SVG Export Plug-In . SVG Version: 6.00 Build 0)  -->
<svg xmlns="http://www.w3.org/2000/svg" xmlns:xlink="http://www.w3.org/1999/xlink" version="1.1" id="Capa_1" x="0px" y="0px" viewBox="0 0 512 512" style="enable-background:new 0 0 512 512;" xml:space="preserve" width="512" height="512">
<g>
	<path style="fill:#FDD835;" d="M490.5,251h-469c-7.732,0-14-6.268-14-14V85c0-7.732,6.268-14,14-14h469c7.732,0,14,6.268,14,14v152   C504.5,244.732,498.232,251,490.5,251z"/>
	<path style="fill:#FBC02D;" d="M490.5,71h-30c7.732,0,14,6.268,14,14v152c0,7.732-6.268,14-14,14h30c7.732,0,14-6.268,14-14V85   C504.5,77.268,498.232,71,490.5,71z"/>
	
		<rect x="196" y="-57.5" transform="matrix(-1.836970e-16 1 -1 -1.836970e-16 417.0004 -94.9996)" style="fill:#DBD3D0;" width="120" height="437"/>
	<polygon style="fill:#837A91;" points="467.078,411 44.922,411 36.2,251 475.8,251  "/>
	<polygon style="fill:#6B6477;" points="445.8,251 437.078,411 467.078,411 475.8,251  "/>
	<polygon style="fill:#FF7043;" points="73.339,381.155 67.871,280.845 444.129,280.845 438.661,381.155  "/>
	<rect x="30" y="411" style="fill:#DBD3D0;" width="452" height="30"/>
	<rect x="452" y="411" style="fill:#D1C6C2;" width="30" height="30"/>
	<circle style="fill:#FDD835;" cx="133" cy="327" r="15"/>
	<circle style="fill:#FDD835;" cx="379" cy="327" r="15"/>
	<g>
		<path d="M128,388.655h310.661c3.983,0,7.272-3.114,7.489-7.092l5.468-100.311c0.233-4.305-3.198-7.908-7.489-7.908H67.871    c-4.304,0-7.723,3.617-7.489,7.908l5.468,100.311c0.217,3.978,3.505,7.092,7.489,7.092h22.495c4.142,0,7.5-3.357,7.5-7.5    s-3.358-7.5-7.5-7.5H80.441l-4.65-85.311h360.418l-4.65,85.311H128c-4.142,0-7.5,3.357-7.5,7.5S123.858,388.655,128,388.655z"/>
		<path d="M154.215,334.5h203.571c3.096,8.73,11.437,15,21.215,15c12.406,0,22.5-10.094,22.5-22.5s-10.094-22.5-22.5-22.5    c-9.778,0-18.119,6.27-21.215,15H154.215c-3.095-8.73-11.437-15-21.215-15c-12.407,0-22.5,10.094-22.5,22.5s10.093,22.5,22.5,22.5    C142.778,349.5,151.119,343.23,154.215,334.5z M379,319.5c4.136,0,7.5,3.364,7.5,7.5s-3.364,7.5-7.5,7.5s-7.5-3.364-7.5-7.5    S374.864,319.5,379,319.5z M125.5,327c0-4.136,3.364-7.5,7.5-7.5s7.5,3.364,7.5,7.5s-3.364,7.5-7.5,7.5S125.5,331.136,125.5,327z"/>
		<path d="M490.5,63.5H96c-4.142,0-7.5,3.357-7.5,7.5s3.358,7.5,7.5,7.5h394.5c3.584,0,6.5,2.916,6.5,6.5v152    c0,3.584-2.916,6.5-6.5,6.5h-60v-2.692c0-4.143-3.357-7.5-7.5-7.5s-7.5,3.357-7.5,7.5v2.692h-319v-2.692    c0-4.143-3.358-7.5-7.5-7.5s-7.5,3.357-7.5,7.5v2.692h-60c-3.584,0-6.5-2.916-6.5-6.5V85c0-3.584,2.916-6.5,6.5-6.5h42.25    c4.142,0,7.5-3.357,7.5-7.5s-3.358-7.5-7.5-7.5H21.5C9.645,63.5,0,73.145,0,85v152c0,11.855,9.645,21.5,21.5,21.5h7.598l7.904,145    H30c-4.142,0-7.5,3.357-7.5,7.5v30c0,4.143,3.358,7.5,7.5,7.5h452c4.143,0,7.5-3.357,7.5-7.5v-30c0-4.143-3.357-7.5-7.5-7.5    h-7.001l4.858-89.122c0.225-4.136-2.945-7.672-7.081-7.897c-4.126-0.208-7.671,2.945-7.897,7.081l-4.902,89.938H52.024l-7.905-145    h423.76l-1.258,23.074c-0.225,4.136,2.945,7.672,7.081,7.897c4.148,0.197,7.672-2.944,7.897-7.081l1.302-23.891h7.597    c11.855,0,21.5-9.645,21.5-21.5V85C512,73.145,502.355,63.5,490.5,63.5z M474.5,418.5v15h-437v-15H474.5z"/>
		<path d="M30,101v120c0,4.143,3.358,7.5,7.5,7.5h437c4.143,0,7.5-3.357,7.5-7.5V101c0-4.143-3.357-7.5-7.5-7.5h-437    C33.358,93.5,30,96.857,30,101z M45,108.5h422v105H45V108.5z"/>
	</g>
</g>















</svg>
