<svg id="Capa_1" enable-background="new 0 0 511.999 511.999" height="512" viewBox="0 0 511.999 511.999" width="512" xmlns="http://www.w3.org/2000/svg"><g><path d="m400.911 148.694c-18.957-20.105-37.857-27.114-39.95-27.847-1.594-.558-3.27-.843-4.958-.843h-200.007c-1.688 0-3.365.285-4.958.843-2.092.733-20.993 7.741-39.95 27.847-17.372 18.424-38.081 51.895-38.081 106.713 0 75.344 60.671 164.913 75.192 185.269 1.623 2.275 2.669 3.685 2.99 4.115 2.832 3.791 7.286 6.023 12.017 6.023h185.586c4.731 0 9.185-2.232 12.017-6.023.321-.43 1.368-1.842 2.993-4.119 14.527-20.364 75.19-109.926 75.19-185.265 0-54.818-20.709-88.288-38.081-106.713z" fill="#fff5f5"/><path d="m400.911 148.694c-18.957-20.105-37.857-27.114-39.95-27.847-1.594-.558-3.27-.843-4.958-.843h-100.004v330.81h92.793c4.731 0 9.185-2.232 12.017-6.023.321-.43 1.368-1.842 2.993-4.119 14.527-20.364 75.19-109.926 75.19-185.265 0-54.818-20.709-88.288-38.081-106.713z" fill="#e6f0f2"/><path d="m148.206 440.667v26.332c0 24.813 20.187 45 45 45h125.586c24.813 0 45-20.187 45-45v-26.332z" fill="#e6f0f2"/><path d="m255.999 440.667v71.332h62.793c24.813 0 45-20.187 45-45v-26.332z" fill="#cfdfe6"/><path d="m73.007 255.407c0 34.31 12.583 71.566 27.659 103.897h310.667c15.076-32.331 27.659-69.587 27.659-103.897 0-15.185-1.594-28.725-4.261-40.768h-357.463c-2.667 12.043-4.261 25.583-4.261 40.768z" fill="#bbd0d5"/><path d="m434.731 214.639h-178.732v144.665h155.334c15.076-32.331 27.659-69.587 27.659-103.897 0-15.185-1.594-28.725-4.261-40.768z" fill="#98b6be"/><circle cx="195.999" cy="285.409" fill="#fff5f5" r="15"/><circle cx="316" cy="285.409" fill="#e6f0f2" r="15"/><circle cx="255.999" cy="285.409" fill="#fff5f5" r="15"/><path d="m255.999 270.409v30c8.284 0 15-6.716 15-15 .001-8.284-6.715-15-15-15z" fill="#e6f0f2"/><path d="m288.794 0h-65.589c-41.355 0-74.999 33.645-74.999 75 0 1.116.125 2.232.372 3.32 1.549 6.834 7.622 11.684 14.629 11.684h185.586c7.007 0 13.081-4.855 14.63-11.688.247-1.088.371-2.2.371-3.316-.001-41.355-33.645-75-75-75z" fill="#98b6be"/><path d="m288.794 0h-32.794v90.004h92.793c7.007 0 13.081-4.855 14.63-11.688.247-1.088.371-2.2.371-3.316-.001-41.355-33.645-75-75-75z" fill="#738da3"/><path d="m140.996 126.004c-16.542 0-30-13.458-30-30s13.458-30 30-30h230.008c16.542 0 30 13.458 30 30s-13.458 30-30 30z" fill="#bbd0d5"/><path d="m371.003 66.004h-115.004v60h115.004c16.542 0 30-13.458 30-30s-13.458-30-30-30z" fill="#98b6be"/></g></svg>