<svg id="Capa_1" enable-background="new 0 0 512.002 512.002" height="512" viewBox="0 0 512.002 512.002" width="512" xmlns="http://www.w3.org/2000/svg"><g><path d="m256.001 511.999c-8.284 0-15-6.716-15-15v-60.995c0-8.284 6.716-15 15-15s15 6.716 15 15v60.995c0 8.284-6.716 15-15 15z" fill="#a6896b"/><path d="m256.001 421.003-.001 90.996h.001c8.284 0 15-6.716 15-15v-60.995c0-8.285-6.716-15.001-15-15.001z" fill="#8c624d"/><path d="m366 512.002c-6.464 0-12.431-4.211-14.37-10.723l-24.651-82.775c-2.365-7.94 2.155-16.293 10.095-18.657 7.942-2.366 16.293 2.155 18.657 10.095l24.651 82.775c2.365 7.939-2.155 16.293-10.095 18.657-1.428.426-2.869.628-4.287.628z" fill="#8c624d"/><path d="m146.002 512.002c-1.418 0-2.858-.203-4.287-.628-7.94-2.364-12.46-10.718-10.095-18.657l24.651-82.774c2.364-7.94 10.715-12.459 18.657-10.095 7.94 2.364 12.46 10.718 10.095 18.657l-24.651 82.774c-1.939 6.512-7.907 10.723-14.37 10.723z" fill="#a6896b"/><path d="m451.002 256.001c-.001-18.198-8.276-35.136-21.941-46.37 6.219-16.562 4.915-35.369-4.185-51.13-9.027-15.634-24.652-26.264-42.186-29.183-2.895-17.454-13.427-33.092-29.19-42.192-9.112-5.26-19.465-8.041-29.94-8.041-7.22 0-14.424 1.338-21.177 3.872-11.234-13.675-28.178-21.955-46.383-21.955-18.206 0-35.149 8.28-46.383 21.956-6.752-2.534-13.956-3.872-21.176-3.872-10.476 0-20.829 2.781-29.941 8.042-15.762 9.1-26.294 24.738-29.189 42.191-17.533 2.92-33.16 13.55-42.186 29.183-9.1 15.761-10.403 34.567-4.185 51.129-13.666 11.234-21.94 28.173-21.94 46.371s8.275 35.137 21.941 46.371c-6.219 16.561-4.915 35.368 4.184 51.129 9.027 15.634 24.652 26.264 42.187 29.184 2.895 17.453 13.428 33.091 29.189 42.191 9.112 5.261 19.466 8.042 29.941 8.042 7.219 0 14.423-1.338 21.175-3.871 11.234 13.676 28.178 21.956 46.384 21.956s35.15-8.28 46.384-21.956c6.752 2.535 13.957 3.872 21.177 3.872 10.476 0 20.829-2.781 29.941-8.042 15.761-9.101 26.294-24.738 29.188-42.191 17.533-2.92 33.16-13.55 42.187-29.185 9.099-15.761 10.402-34.567 4.183-51.129 13.666-11.234 21.941-28.173 21.941-46.372zm-173.88 78.824c-6.69-2.521-13.814-3.822-21.121-3.822-7.308 0-14.43 1.3-21.12 3.822-4.533-5.528-10.052-10.217-16.38-13.871-6.264-3.617-13.119-6.06-20.199-7.233-1.161-7.061-3.596-13.885-7.253-20.219-3.654-6.329-8.342-11.847-13.87-16.38 2.521-6.69 3.822-13.812 3.822-21.12s-1.301-14.43-3.822-21.121c5.527-4.533 10.216-10.051 13.87-16.379 3.657-6.333 6.093-13.159 7.253-20.219 7.081-1.173 13.934-3.617 20.199-7.233 6.329-3.654 11.847-8.341 16.38-13.87 6.69 2.521 13.813 3.822 21.12 3.822 7.308 0 14.431-1.301 21.122-3.822 4.533 5.527 10.051 10.215 16.379 13.869 6.264 3.616 13.118 6.06 20.198 7.233 1.161 7.061 3.597 13.886 7.254 20.22 3.654 6.328 8.342 11.846 13.87 16.379-2.521 6.691-3.822 13.814-3.822 21.122s1.301 14.43 3.822 21.12c-5.528 4.534-10.217 10.052-13.871 16.381-3.656 6.333-6.092 13.159-7.252 20.218-7.081 1.173-13.936 3.617-20.199 7.234-6.329 3.653-11.847 8.341-16.38 13.869z" fill="#00cc76"/><path d="m451.002 256.001c-.001-18.198-8.276-35.136-21.941-46.37 6.219-16.562 4.915-35.369-4.185-51.13-9.027-15.634-24.652-26.264-42.186-29.183-2.895-17.454-13.427-33.092-29.19-42.192-9.112-5.26-19.465-8.041-29.94-8.041-7.22 0-14.424 1.338-21.177 3.872-11.234-13.675-28.178-21.955-46.383-21.955v120h.001c7.308 0 14.431-1.301 21.122-3.822 4.533 5.527 10.051 10.215 16.379 13.869 6.264 3.616 13.118 6.06 20.198 7.233 1.161 7.061 3.597 13.886 7.254 20.22 3.654 6.328 8.342 11.846 13.87 16.379-2.521 6.691-3.822 13.814-3.822 21.122s1.301 14.43 3.822 21.12c-5.528 4.534-10.217 10.052-13.871 16.381-3.656 6.333-6.092 13.159-7.252 20.218-7.081 1.173-13.936 3.617-20.199 7.234-6.329 3.654-11.847 8.342-16.38 13.87-6.69-2.521-13.814-3.822-21.121-3.822h-.001v120h.001c18.206 0 35.15-8.28 46.384-21.956 6.752 2.535 13.957 3.872 21.177 3.872 10.476 0 20.829-2.781 29.941-8.042 15.761-9.101 26.294-24.738 29.188-42.191 17.533-2.92 33.16-13.55 42.187-29.185 9.099-15.761 10.402-34.567 4.183-51.129 13.666-11.234 21.941-28.173 21.941-46.372z" fill="#00aa95"/><path d="m364.877 13.407c-1.385-5.188-5.437-9.24-10.625-10.625-6.918-1.845-14.064-2.782-21.237-2.782-21.912 0-42.508 8.53-57.994 24.017-8.58 8.579-14.99 18.843-19.021 29.934-4.03-11.091-10.44-21.355-19.019-29.934-15.488-15.487-36.084-24.017-57.995-24.017-7.173 0-14.319.937-21.237 2.783-5.188 1.384-9.24 5.437-10.625 10.625-7.537 28.239.598 58.6 21.232 79.234 15.488 15.486 36.084 24.016 57.994 24.016 7.174 0 14.32-.937 21.24-2.783 3.464-.924 6.416-3.041 8.412-5.889 1.996 2.847 4.948 4.964 8.412 5.889 6.918 1.846 14.064 2.783 21.239 2.783h.004c21.907 0 42.504-8.53 57.99-24.017 20.632-20.635 28.768-50.995 21.23-79.234z" fill="#a5e887"/><path d="m364.877 13.407c-1.385-5.188-5.437-9.24-10.625-10.625-6.918-1.845-14.064-2.782-21.237-2.782-21.912 0-42.508 8.53-57.994 24.017-8.58 8.579-14.99 18.843-19.021 29.934v54.034c1.996 2.847 4.948 4.964 8.412 5.889 6.918 1.846 14.064 2.783 21.239 2.783h.004c21.907 0 42.504-8.53 57.99-24.017 20.634-20.634 28.77-50.994 21.232-79.233z" fill="#00cc76"/><path d="m308.325 56.676c-5.952-23.343-27.155-40.658-52.325-40.658-25.169 0-46.372 17.315-52.324 40.657-23.342 5.952-40.655 27.155-40.655 52.325 0 25.169 17.313 46.371 40.655 52.323 5.952 23.343 27.155 40.657 52.324 40.657 25.17 0 46.373-17.314 52.325-40.657 23.343-5.952 40.657-27.154 40.657-52.323s-17.314-46.372-40.657-52.324z" fill="#fff5f5"/><path d="m308.325 56.676c-5.952-23.343-27.155-40.658-52.325-40.658v185.963c25.169 0 46.373-17.314 52.325-40.657 23.343-5.952 40.657-27.154 40.657-52.323 0-25.17-17.314-46.373-40.657-52.325z" fill="#e6f0f2"/><circle cx="256.001" cy="108.999" fill="#ffd580" r="15"/><path d="m256.001 93.999-.001 30h.001c8.284 0 15-6.716 15-15s-6.716-15-15-15z" fill="#ffb366"/></g></svg>