<svg width="1360" height="188" viewBox="0 0 1360 188" fill="none" xmlns="http://www.w3.org/2000/svg">
<path d="M331 93.5C329.619 93.5 328.5 94.6193 328.5 96C328.5 97.3807 329.619 98.5 331 98.5V93.5ZM402.768 97.7678C403.744 96.7915 403.744 95.2085 402.768 94.2322L386.858 78.3223C385.882 77.346 384.299 77.346 383.322 78.3223C382.346 79.2986 382.346 80.8816 383.322 81.8579L397.464 96L383.322 110.142C382.346 111.118 382.346 112.701 383.322 113.678C384.299 114.654 385.882 114.654 386.858 113.678L402.768 97.7678ZM331 98.5H401V93.5H331V98.5Z" fill="#21190E"/>
<path d="M706 93.5C704.619 93.5 703.5 94.6193 703.5 96C703.5 97.3807 704.619 98.5 706 98.5V93.5ZM778.768 97.7678C779.744 96.7915 779.744 95.2085 778.768 94.2322L762.858 78.3223C761.882 77.346 760.299 77.346 759.322 78.3223C758.346 79.2986 758.346 80.8816 759.322 81.8579L773.464 96L759.322 110.142C758.346 111.118 758.346 112.701 759.322 113.678C760.299 114.654 761.882 114.654 762.858 113.678L778.768 97.7678ZM706 98.5H777V93.5H706V98.5Z" fill="#21190E"/>
<path d="M1071 93.5C1069.62 93.5 1068.5 94.6193 1068.5 96C1068.5 97.3807 1069.62 98.5 1071 98.5V93.5ZM1143.77 97.7678C1144.74 96.7915 1144.74 95.2085 1143.77 94.2322L1127.86 78.3223C1126.88 77.346 1125.3 77.346 1124.32 78.3223C1123.35 79.2986 1123.35 80.8816 1124.32 81.8579L1138.46 96L1124.32 110.142C1123.35 111.118 1123.35 112.701 1124.32 113.678C1125.3 114.654 1126.88 114.654 1127.86 113.678L1143.77 97.7678ZM1071 98.5H1142V93.5H1071V98.5Z" fill="#21190E"/>
<path d="M1356.21 154.427H1344.46V137.647C1344.46 136.639 1344.04 135.727 1343.35 135.067C1344.07 133.638 1344.46 132.039 1344.46 130.352C1344.46 124.942 1341.23 117.062 1335.24 113.115C1333.95 112.265 1332.25 112.265 1330.96 113.115C1324.96 117.062 1321.73 124.942 1321.73 130.352C1321.73 132.039 1322.13 133.638 1322.84 135.067C1322.15 135.727 1321.73 136.639 1321.73 137.647V139.836H1314.15V62.3598C1314.15 58.3371 1310.75 55.0643 1306.57 55.0643H1274.48V36.734H1283.84C1285.93 36.734 1287.63 35.1006 1287.63 33.0863V18.2855C1287.63 16.2712 1285.93 14.6378 1283.84 14.6378H1274.48V4.13957C1274.48 2.12492 1272.78 0.491821 1270.69 0.491821H1255.31C1253.22 0.491821 1251.52 2.12492 1251.52 4.13957V14.6378H1242.16C1240.07 14.6378 1238.37 16.2712 1238.37 18.2855V33.0863C1238.37 35.1006 1240.07 36.734 1242.16 36.734H1251.52V55.0643H1219.43C1215.25 55.0643 1211.85 58.3371 1211.85 62.3598V139.836H1204.27V137.647C1204.27 136.639 1203.84 135.727 1203.16 135.067C1203.87 133.638 1204.27 132.039 1204.27 130.352C1204.27 124.942 1201.04 117.062 1195.04 113.115C1193.75 112.265 1192.05 112.265 1190.76 113.115C1184.77 117.062 1181.54 124.942 1181.54 130.352C1181.54 132.039 1181.93 133.638 1182.65 135.067C1181.96 135.727 1181.54 136.639 1181.54 137.647V154.427H1169.79C1167.7 154.427 1166 156.06 1166 158.074V183.609C1166 185.623 1167.7 187.256 1169.79 187.256H1245.96C1248.06 187.256 1249.75 185.623 1249.75 183.609C1249.75 181.594 1248.06 179.961 1245.96 179.961H1173.58V161.722H1352.42V179.961H1280.04C1277.94 179.961 1276.25 181.594 1276.25 183.609C1276.25 185.623 1277.94 187.256 1280.04 187.256H1356.21C1358.3 187.256 1360 185.623 1360 183.609V158.074C1360 156.06 1358.3 154.427 1356.21 154.427ZM1336.89 141.295V154.427H1329.31V141.295H1336.89ZM1333.1 121.029C1335.58 123.864 1336.89 127.912 1336.89 130.352C1336.89 132.363 1335.19 133.999 1333.1 133.999C1331.01 133.999 1329.31 132.363 1329.31 130.352C1329.31 127.912 1330.61 123.864 1333.1 121.029ZM1255.31 29.4385H1245.95V21.9333H1255.31C1257.41 21.9333 1259.1 20.2998 1259.1 18.2855V7.78732H1266.9V18.2855C1266.9 20.2998 1268.59 21.9333 1270.69 21.9333H1280.05V29.4385H1270.69C1268.59 29.4385 1266.9 31.072 1266.9 33.0863V55.0643H1259.1V33.0863C1259.1 31.072 1257.41 29.4385 1255.31 29.4385ZM1219.43 62.3598H1306.57V139.836H1219.43V62.3598ZM1215.64 147.131H1310.36H1321.73V154.427H1204.27V147.131H1215.64ZM1192.9 121.029C1195.39 123.864 1196.69 127.912 1196.69 130.352C1196.69 132.363 1194.99 133.999 1192.9 133.999C1190.81 133.999 1189.11 132.363 1189.11 130.352C1189.11 127.912 1190.42 123.864 1192.9 121.029ZM1189.11 141.295H1196.69V154.427H1189.11V141.295Z" fill="#21190E"/>
<path d="M1263 187.256C1265.09 187.256 1266.79 185.623 1266.79 183.609C1266.79 181.594 1265.09 179.961 1263 179.961C1260.91 179.961 1259.21 181.594 1259.21 183.609C1259.21 185.623 1260.91 187.256 1263 187.256Z" fill="#21190E"/>
<path d="M1252.33 88.3311H1273.67C1275.76 88.3311 1277.45 86.6979 1277.45 84.6833C1277.45 82.669 1275.76 81.0355 1273.67 81.0355H1252.33C1250.24 81.0355 1248.55 82.669 1248.55 84.6833C1248.55 86.6976 1250.24 88.3311 1252.33 88.3311Z" fill="#21190E"/>
<path d="M1273.67 113.865H1252.33C1250.24 113.865 1248.55 115.499 1248.55 117.513C1248.55 119.527 1250.24 121.161 1252.33 121.161H1273.67C1275.76 121.161 1277.45 119.527 1277.45 117.513C1277.45 115.498 1275.76 113.865 1273.67 113.865Z" fill="#21190E"/>
<path d="M1289.34 97.4503H1236.66C1234.57 97.4503 1232.87 99.0838 1232.87 101.098C1232.87 103.112 1234.57 104.746 1236.66 104.746H1289.34C1291.43 104.746 1293.13 103.112 1293.13 101.098C1293.13 99.0834 1291.43 97.4503 1289.34 97.4503Z" fill="#21190E"/>
<path d="M874.327 54.3795H958.513C961.846 54.3795 964.547 51.7785 964.547 48.5699C964.547 45.3614 961.846 42.7604 958.513 42.7604H874.327C870.994 42.7604 868.292 45.3614 868.292 48.5699C868.292 51.7785 870.994 54.3795 874.327 54.3795Z" fill="#21190E"/>
<path d="M874.327 74.339H958.513C961.846 74.339 964.547 71.7379 964.547 68.5293C964.547 65.3207 961.846 62.7196 958.513 62.7196H874.327C870.994 62.7196 868.292 65.3207 868.292 68.5293C868.292 71.7379 870.994 74.339 874.327 74.339Z" fill="#21190E"/>
<path d="M918.862 142.556H874.327C870.994 142.556 868.292 145.157 868.292 148.366C868.292 151.574 870.994 154.176 874.327 154.176H918.861C922.194 154.176 924.896 151.574 924.896 148.366C924.896 145.157 922.195 142.556 918.862 142.556Z" fill="#21190E"/>
<path d="M1044.11 11.5685L1026.37 1.32028C1025 0.527682 1023.36 0.291147 1021.8 0.665453C1020.25 1.03893 1018.91 1.99171 1018.09 3.31215L987.203 52.8716V17.7482C987.203 14.5397 984.502 11.9386 981.169 11.9386H846.035C842.702 11.9386 840 14.5397 840 17.7482V181.447C840 184.655 842.702 187.256 846.035 187.256H981.169C984.502 187.256 987.203 184.655 987.203 181.447V114.17L1046.18 19.5393C1047.9 16.788 1046.97 13.22 1044.11 11.5685ZM966.178 125.322L956.163 133.325L958.785 121.052L1016.68 28.1666L1024.07 32.4366L966.178 125.322ZM1030.28 22.4731L1022.89 18.203L1025.34 14.2724L1032.73 18.5425L1030.28 22.4731ZM852.069 175.637V23.5579H975.134V72.2367L964.476 89.3369C964.518 89.0589 964.547 88.7775 964.547 88.4887C964.547 85.2801 961.846 82.6791 958.513 82.6791H874.327C870.994 82.6791 868.292 85.2801 868.292 88.4887C868.292 91.6973 870.994 94.2983 874.327 94.2983H958.513C959.857 94.2983 961.093 93.8701 962.096 93.1555L956.185 102.638H874.327C870.994 102.638 868.292 105.24 868.292 108.448C868.292 111.657 870.994 114.258 874.327 114.258H948.943L947.905 115.923C947.555 116.484 947.306 117.099 947.169 117.741L946.132 122.597H874.327C870.994 122.597 868.292 125.198 868.292 128.407C868.292 131.615 870.994 134.216 874.327 134.216H943.649L940.876 147.196C940.359 149.612 941.485 152.078 943.682 153.348C944.642 153.903 945.717 154.176 946.786 154.176C948.163 154.176 949.532 153.724 950.642 152.837L974.677 133.63C974.842 133.498 974.985 133.345 975.134 133.198V175.637H852.069Z" fill="#21190E"/>
<path d="M607.215 163.158L599.971 142.234C597.44 134.929 590.982 129.537 583.109 128.157L562.198 124.494V122.934C565.837 120.901 569.003 118.181 571.525 114.96H577.843C583.018 114.96 587.23 110.906 587.23 105.923V69.7755C587.23 48.183 568.982 30.6151 546.553 30.6151C524.124 30.6151 505.875 48.183 505.875 69.7755V90.8618C505.875 96.6696 510.165 101.528 515.854 102.661C517.609 111.319 523.229 118.645 530.907 122.934V124.494L509.993 128.157C502.123 129.537 495.662 134.929 493.134 142.234L491.882 145.852L481.225 135.592C480.004 134.417 480.004 132.504 481.225 131.329L493.584 119.434L470.386 97.1003L456.418 110.547C452.281 114.53 450.003 119.825 450.003 125.458C450.003 131.092 452.281 136.384 456.418 140.366L498.707 181.078C502.843 185.06 508.344 187.256 514.195 187.256C520.047 187.256 525.544 185.06 529.584 181.169L544.825 167.725L540.072 163.158H607.215ZM580.972 105.923C580.972 107.586 579.567 108.936 577.843 108.936H575.211C576.119 106.945 576.807 104.845 577.252 102.661C578.591 102.393 579.824 101.881 580.972 101.236V105.923ZM577.843 96.049V85.6745C579.705 86.7198 580.972 88.6417 580.972 90.8618C580.972 93.0819 579.705 95.0037 577.843 96.049ZM515.262 96.049C513.401 95.0037 512.133 93.0819 512.133 90.8618C512.133 88.6417 513.401 86.7198 515.262 85.6745V96.049ZM515.262 75.8001V79.2402C514.148 79.5204 513.103 79.9421 512.133 80.4873V69.7755C512.133 51.5056 527.575 36.6398 546.553 36.6398C565.53 36.6398 580.972 51.5056 580.972 69.7755V80.4873C580.002 79.9421 578.957 79.5173 577.843 79.2402V75.8001H574.714C565.461 75.8001 556.763 72.3299 550.217 66.0311L546.553 62.5037L542.889 66.0311C536.343 72.3299 527.644 75.8001 518.391 75.8001H515.262ZM521.52 96.8865V81.7103C530.917 81.0295 539.678 77.2973 546.553 71.0045C553.427 77.2973 562.188 81.0325 571.585 81.7103V96.8865C571.585 101.278 570.34 105.387 568.199 108.936H546.553V114.96H563.055C558.643 118.699 552.876 120.985 546.553 120.985C532.75 120.985 521.52 110.174 521.52 96.8865ZM555.94 125.621V125.763L546.553 134.8L537.166 125.763V125.621C540.132 126.519 543.283 127.01 546.553 127.01C549.822 127.01 552.973 126.519 555.94 125.621ZM499.066 144.138C500.872 138.921 505.487 135.068 511.11 134.08L532.982 130.254L546.553 143.319L560.12 130.257L581.989 134.083C587.612 135.071 592.227 138.921 594.033 144.141L598.535 157.133H533.814L521.627 145.4L508.084 157.193C506.905 158.335 504.843 158.335 503.66 157.193L496.826 150.614L499.066 144.138ZM470.383 105.619L484.732 119.434L481.334 122.705L466.984 108.891L470.383 105.619ZM525.25 176.825C522.296 179.662 518.366 181.232 514.189 181.232C510.012 181.232 506.082 179.662 503.125 176.819L460.836 136.11C457.882 133.266 456.255 129.483 456.255 125.461C456.255 121.437 457.882 117.653 460.836 114.81L462.557 113.153L476.907 126.968L476.794 127.076C473.136 130.6 473.136 136.333 476.794 139.857L499.232 161.459C501.006 163.164 503.363 164.107 505.872 164.107C508.382 164.107 510.738 163.167 512.396 161.564L512.631 161.362L527.046 175.24L525.25 176.825ZM531.665 171.162L517.281 157.314L521.414 153.717L535.773 167.541L531.665 171.162Z" fill="#21190E"/>
<path d="M634.166 0.491821H590.359C585.184 0.491821 580.972 4.54642 580.972 9.52883V33.6275C580.972 38.6099 585.184 42.6645 590.359 42.6645H598.717L595.481 60.8319L625.676 42.6645H634.166C639.341 42.6645 643.553 38.6099 643.553 33.6275V9.52883C643.553 4.54642 639.341 0.491821 634.166 0.491821ZM637.295 33.6275C637.295 35.2873 635.89 36.6398 634.166 36.6398H623.88L604.008 48.5958L606.139 36.6398H590.359C588.635 36.6398 587.23 35.2873 587.23 33.6275V9.52883C587.23 7.86903 588.635 6.51649 590.359 6.51649H634.166C635.89 6.51649 637.295 7.86903 637.295 9.52883V33.6275Z" fill="#21190E"/>
<path d="M631.036 12.5411H593.488V18.5659H631.036V12.5411Z" fill="#21190E"/>
<path d="M618.52 24.5905H593.488V30.6151H618.52V24.5905Z" fill="#21190E"/>
<path d="M631.036 24.5905H624.778V30.6151H631.036V24.5905Z" fill="#21190E"/>
<path d="M546.553 9.52881C505.669 9.52881 470.451 36.7543 461.296 74.7308L455.366 65.2148L450 68.3145L460.999 85.9578L479.325 75.3694L476.106 70.2033L467.626 75.1013C476.494 40.3601 508.945 15.5535 546.553 15.5535C554.773 15.5535 562.883 16.7283 570.659 19.0478L572.511 13.2942C564.135 10.794 555.401 9.52881 546.553 9.52881Z" fill="#21190E"/>
<path d="M642.032 67.1909L623.705 56.6025L612.71 74.2488L618.076 77.3485L623.552 68.5615C626.434 76.6798 627.907 85.1715 627.907 93.8742C627.907 111.789 621.462 129.302 609.762 143.186L614.621 146.982C627.225 132.028 634.165 113.165 634.165 93.8742C634.165 84.6594 632.623 75.6616 629.616 67.0463L638.812 72.3571L642.032 67.1909Z" fill="#21190E"/>
<path d="M282.711 34.6431V16.5002C282.711 7.8226 274.873 0.491821 265.594 0.491821H202.646C193.512 0.491821 186.081 7.67319 186.081 16.5002V34.6431H282.711Z" fill="#21190E"/>
<path d="M186.081 50.6515V171.248C186.081 180.075 193.512 187.256 202.646 187.256H265.594C274.873 187.256 282.711 179.926 282.711 171.248V50.6515H186.081ZM236.528 152.758C232.422 153.941 227.743 152.013 226.196 147.428C224.955 143.404 227.044 138.884 231.718 137.444C236.247 136.113 241.204 138.726 242.243 143.538C242.992 147.406 240.935 151.37 236.528 152.758ZM236.528 118.607C232.425 119.789 227.743 117.862 226.196 113.276C224.955 109.252 227.044 104.733 231.718 103.292C236.247 101.962 241.204 104.575 242.243 109.386C242.992 113.255 240.935 117.219 236.528 118.607Z" fill="#21190E"/>
<path d="M150.742 0.491821H16.5651C7.43221 0.491821 0 7.67425 0 16.5002V124.824C0 133.65 7.43221 140.832 16.5651 140.832H150.742C159.875 140.832 167.308 133.65 167.308 124.824V16.5002C167.308 7.67425 159.875 0.491821 150.742 0.491821Z" fill="#21190E"/>
<path d="M128.103 171.248H109.882V156.841H57.9779V171.248H39.7562C35.1843 171.248 31.4737 174.834 31.4737 179.252C31.4737 183.671 35.1843 187.256 39.7562 187.256H128.103C132.675 187.256 136.386 183.671 136.386 179.252C136.386 174.834 132.675 171.248 128.103 171.248Z" fill="#21190E"/>
</svg>
