<svg id="Capa_1" enable-background="new 0 0 512 512" height="512" viewBox="0 0 512 512" width="512" xmlns="http://www.w3.org/2000/svg"><g><path d="m502 422h-31v-46c0-2.763-1.121-5.264-2.932-7.074 1.878-3.917 2.932-8.3 2.932-12.926 0-14.83-8.535-36.432-24.354-47.253-3.404-2.33-7.889-2.33-11.293 0-15.818 10.821-24.353 32.423-24.353 47.253 0 4.626 1.054 9.01 2.932 12.926-1.812 1.81-2.932 4.311-2.932 7.074v6h-20v-212.394c0-11.028-8.972-20-20-20h-84.712v-50.251h24.712c5.523 0 10-4.478 10-10v-40.575c0-5.522-4.477-10-10-10h-24.712v-28.78c0-5.523-4.477-10-10-10h-40.575c-5.523 0-10 4.477-10 10v28.78h-24.713c-5.523 0-10 4.478-10 10v40.575c0 5.522 4.477 10 10 10h24.712v50.251h-84.712c-11.028 0-20 8.972-20 20v212.394h-20v-6c0-2.763-1.121-5.264-2.932-7.074 1.878-3.916 2.932-8.3 2.932-12.926 0-14.83-8.535-36.432-24.354-47.253-3.404-2.33-7.889-2.33-11.293 0-15.818 10.821-24.353 32.423-24.353 47.253 0 4.626 1.054 9.01 2.932 12.926-1.812 1.81-2.932 4.311-2.932 7.074v46h-31c-5.523 0-10 4.478-10 10v70c0 5.522 4.477 10 10 10h201.04c5.523 0 10-4.478 10-10s-4.477-10-10-10h-191.04v-50h472v50h-191.04c-5.523 0-10 4.478-10 10s4.477 10 10 10h201.04c5.523 0 10-4.478 10-10v-70c0-5.522-4.477-10-10-10zm-51-36v36h-20v-36zm-10-55.557c6.555 7.771 10 18.868 10 25.557 0 5.514-4.486 10-10 10s-10-4.486-10-10c0-6.689 3.445-17.785 10-25.557zm-205.288-251.088h-24.712v-20.575h24.712c5.523 0 10-4.478 10-10v-28.78h20.575v28.78c0 5.522 4.477 10 10 10h24.713v20.575h-24.712c-5.523 0-10 4.478-10 10v60.251h-20.575v-60.251c-.001-5.522-4.478-10-10.001-10zm-94.712 90.251h230v212.394h-230zm-10 232.394h250 30v20h-310v-20zm-60-71.557c6.555 7.771 10 18.868 10 25.557 0 5.514-4.486 10-10 10s-10-4.486-10-10c0-6.689 3.445-17.785 10-25.557zm-10 55.557h20v36h-20z"/><circle cx="256" cy="502" r="10"/><path d="m227.851 240.804h56.298c5.523 0 10-4.477 10-10 0-5.522-4.477-10-10-10h-56.298c-5.523 0-10 4.478-10 10s4.477 10 10 10z"/><path d="m284.149 310.804h-56.298c-5.523 0-10 4.478-10 10s4.477 10 10 10h56.298c5.523 0 10-4.478 10-10 0-5.523-4.477-10-10-10z"/><path d="m325.511 265.804h-139.022c-5.523 0-10 4.478-10 10s4.477 10 10 10h139.021c5.523 0 10-4.478 10-10 .001-5.523-4.476-10-9.999-10z"/></g></svg>